<svg width="30" height="30" viewBox="0 0 30 30" fill="none" xmlns="http://www.w3.org/2000/svg">
<path d="M20.8628 21.0084C20.8628 21.5458 20.4231 21.9367 19.9345 21.9367H10.1143C9.5769 21.9367 9.18605 21.497 9.18605 21.0084V19.9824C9.18605 19.445 9.62576 19.0541 10.1143 19.0541H19.8857C20.4231 19.0541 20.814 19.4938 20.814 19.9824V21.0084H20.8628Z" fill="#5E8591"/>
<path d="M21.4491 26.9689C21.4491 27.2621 21.2048 27.5064 20.9117 27.5064C20.6185 27.5064 20.3742 27.5064 20.3742 27.2132V19.2984C20.3742 19.0053 20.6185 18.761 20.9117 18.761C21.2048 18.761 21.4491 19.0053 21.4491 19.2984V26.9689Z" fill="#5E8591"/>
<path d="M9.67461 27.2621C9.67461 27.5552 9.43033 27.5552 9.13719 27.5552C8.84405 27.5552 8.59977 27.3109 8.59977 27.0178V19.2984C8.59977 19.0053 8.84405 18.761 9.13719 18.761C9.43033 18.761 9.67461 19.0053 9.67461 19.2984V27.2621Z" fill="#5E8591"/>
<path d="M23.2079 29.2652C23.2079 29.656 22.8659 29.998 22.4751 29.998C22.0842 29.998 21.7422 30.0469 21.7422 29.656V19.445C21.7422 19.0541 22.0842 18.7121 22.4751 18.7121C22.8659 18.7121 23.2079 19.0541 23.2079 19.445V29.2652Z" fill="#7DA3B2"/>
<path d="M8.20891 29.6072C8.20891 29.998 7.86692 29.9492 7.47606 29.9492C7.08521 29.9492 6.74321 29.6072 6.74321 29.2163V19.445C6.74321 19.0541 7.08521 18.7121 7.47606 18.7121C7.86692 18.7121 8.20891 19.0541 8.20891 19.445V29.6072Z" fill="#7DA3B2"/>
<path d="M23.2079 19.5427C23.2079 19.7381 23.0125 19.9336 22.8171 19.9336H7.18292C6.9875 19.9336 6.79207 19.7381 6.79207 19.5427C6.79207 19.3473 6.9875 19.1518 7.18292 19.1518H22.8171C23.0614 19.2007 23.2079 19.3473 23.2079 19.5427Z" fill="#7DA3B2"/>
<path d="M21.8888 5.7651C21.8888 6.59566 21.2048 7.27966 20.3742 7.27966H9.62576C8.79519 7.27966 8.1112 6.59566 8.1112 5.7651V1.51456C8.1112 0.683994 8.79519 0 9.62576 0H20.3742C21.2048 0 21.8888 0.683994 21.8888 1.51456V5.7651Z" fill="black"/>
<path d="M9.52804 16.367C9.52804 16.7579 9.18605 17.0999 8.79519 17.0999C8.40434 17.0999 8.06234 16.7579 8.06234 16.367V6.5468C8.06234 6.15595 8.40434 5.81395 8.79519 5.81395C9.18605 5.81395 9.52804 6.15595 9.52804 6.5468V16.367Z" fill="#99B9C9"/>
<path d="M21.8888 16.367C21.8888 16.7579 21.5468 17.0999 21.1559 17.0999C20.7651 17.0999 20.4231 16.7579 20.4231 16.367V6.5468C20.4231 6.15595 20.7651 5.81395 21.1559 5.81395C21.5468 5.81395 21.8888 6.15595 21.8888 6.5468V16.367Z" fill="#99B9C9"/>
<path d="M21.1559 5.86281C20.7651 5.86281 20.4231 6.20481 20.4231 6.59566V9.28278C21.2048 9.23392 21.8399 8.59879 21.8399 7.76822V6.59566C21.8888 6.15595 21.5468 5.86281 21.1559 5.86281Z" fill="#7DA3B2"/>
<path d="M9.52804 9.23392V6.5468C9.52804 6.15595 9.18605 5.81395 8.79519 5.81395C8.40434 5.81395 8.06234 6.15595 8.06234 6.5468V7.71936C8.1112 8.54993 8.74633 9.18507 9.52804 9.23392Z" fill="#7DA3B2"/>
<path d="M21.8888 6.25367C21.8888 7.08423 21.2048 7.76823 20.3742 7.76823H9.62576C8.79519 7.76823 8.1112 7.08423 8.1112 6.25367V2.00313C8.1112 1.17257 8.79519 0.488571 9.62576 0.488571H20.3742C21.2048 0.488571 21.8888 1.17257 21.8888 2.00313V6.25367Z" fill="#D3D3D3"/>
<path d="M21.8888 6.25366C21.8888 7.08423 21.2048 7.76822 20.3742 7.76822H9.62576C8.79519 7.76822 8.1112 7.08423 8.1112 6.25366" fill="#8A8A8A"/>
<path d="M23.1591 17.2953V16.6601C23.1591 15.683 22.3774 14.9013 21.4002 14.9013H8.64862C7.67149 14.9013 6.88978 15.683 6.88978 16.6601V17.2953H23.1591Z" fill="#EBEBEB"/>
<path d="M21.3514 14.9013H8.64862C7.67149 14.9013 6.88978 15.683 6.88978 16.6601V17.051C6.88978 16.0739 7.67149 15.2922 8.64862 15.2922H21.3514C22.3285 15.2922 23.1102 16.0739 23.1102 17.051V16.6601C23.1591 15.683 22.3285 14.9013 21.3514 14.9013Z" fill="black"/>
<path d="M23.5499 18.9076C23.5499 19.103 23.4034 19.2984 23.1591 19.2984H6.84092C6.6455 19.2984 6.45007 19.1518 6.45007 18.9076V17.2464C6.45007 17.051 6.6455 16.8556 6.84092 16.8556H23.1591C23.3545 16.8556 23.5499 17.0021 23.5499 17.2464V18.9076Z" fill="#8A8A8A"/>
</svg>
