<svg width="198" height="45" viewBox="0 0 198 45" fill="none" xmlns="http://www.w3.org/2000/svg">
<path d="M105 13.1882L102.35 8.79574L97.6093 10.9884L94.9591 6.5959L90.2204 8.79032L87.5684 4.39787L82.8297 6.59409L80.1777 2.20165L75.4389 4.39245L72.7851 0L68.0501 2.19261L58 33.99L70.1918 37.6142C70.6082 36.3252 71.4313 35.2006 72.5414 34.4042C73.6514 33.6077 74.9906 33.1808 76.3639 33.1856C79.9317 33.1856 82.8242 36 82.8242 39.4724L82.8223 39.5989C82.8517 40.1683 82.7838 40.7449 82.6058 41.3089L95.005 45L105 13.1864" fill="#C4242B"/>
<path d="M1.95312 28V10.5439H9.39941C12.7197 10.5439 14.3799 11.8989 14.3799 14.6089C14.3799 16.5946 13.1755 18.0146 10.7666 18.8691C13.3219 19.3005 14.5996 20.6636 14.5996 22.9585C14.5996 26.3195 12.7808 28 9.14307 28H1.95312ZM9.00879 26.9014C11.8245 26.9014 13.2324 25.5993 13.2324 22.9951C13.2324 20.6921 11.4705 19.5405 7.94678 19.5405H6.97021V18.6738C11.0392 18.3076 13.0737 16.9811 13.0737 14.6943C13.0737 12.6598 11.8205 11.6426 9.31396 11.6426H3.23486V26.9014H9.00879ZM18.8599 21.5425C18.8599 25.1965 20.4264 27.0234 23.5596 27.0234C26.6927 27.0234 28.2593 25.1965 28.2593 21.5425C28.2593 17.9536 26.6927 16.1592 23.5596 16.1592C20.4264 16.1592 18.8599 17.9536 18.8599 21.5425ZM17.5781 21.5913C17.5781 17.2375 19.5719 15.0605 23.5596 15.0605C27.5472 15.0605 29.541 17.2375 29.541 21.5913C29.541 25.937 27.5472 28.1099 23.5596 28.1099C19.5882 28.1099 17.5944 25.937 17.5781 21.5913ZM33.5083 21.5425C33.5083 25.1965 35.0749 27.0234 38.208 27.0234C41.3411 27.0234 42.9077 25.1965 42.9077 21.5425C42.9077 17.9536 41.3411 16.1592 38.208 16.1592C35.0749 16.1592 33.5083 17.9536 33.5083 21.5425ZM32.2266 21.5913C32.2266 17.2375 34.2204 15.0605 38.208 15.0605C42.1956 15.0605 44.1895 17.2375 44.1895 21.5913C44.1895 25.937 42.1956 28.1099 38.208 28.1099C34.2367 28.1099 32.2428 25.937 32.2266 21.5913ZM47.3633 28V10.5439H48.645V16.3057C50.1343 15.557 51.7741 15.1826 53.5645 15.1826C56.5918 15.1826 58.1055 16.4155 58.1055 18.8813C58.1055 20.7531 56.7627 22.0308 54.0771 22.7144L58.4229 28H56.543L52.4658 22.6899V21.9209C55.3711 21.5872 56.8237 20.57 56.8237 18.8691C56.8237 17.1439 55.6437 16.2812 53.2837 16.2812C51.7131 16.2812 50.1668 16.6637 48.645 17.4287V28H47.3633ZM67.0898 28V15.1826H68.0054L68.1396 16.7939C69.4499 15.7197 70.87 15.1826 72.3999 15.1826C74.4181 15.1826 75.7243 15.7686 76.3184 16.9404C77.7913 15.7686 79.2847 15.1826 80.7983 15.1826C83.6629 15.1826 85.0952 16.6027 85.0952 19.4429V28H83.8135V19.4429C83.8135 17.3677 82.8044 16.3301 80.7861 16.3301C79.1748 16.3301 77.8442 16.8835 76.7944 17.9902V28H75.5127V19.2354C75.5127 17.2985 74.471 16.3301 72.3877 16.3301C70.874 16.3301 69.5353 16.8835 68.3716 17.9902V28H67.0898ZM87.4878 15.1826H88.9648L93.7256 26.7549L98.4131 15.1826H99.8291L94.2627 28.3784C93.3187 30.7059 91.9027 32.1585 90.0146 32.7363L89.6362 31.7109C91.1174 31.1738 92.2485 30.002 93.0298 28.1953L87.4878 15.1826ZM108.081 27.3896V26.1689C109.505 26.6572 110.905 26.9014 112.28 26.9014C114.974 26.9014 116.321 26.0469 116.321 24.3379C116.321 22.9544 115.324 22.2627 113.33 22.2627H111.694C109.009 22.2627 107.666 21.1234 107.666 18.8447C107.666 16.4033 109.444 15.1826 113 15.1826C114.368 15.1826 115.763 15.3861 117.188 15.793V17.0137C115.763 16.5254 114.368 16.2812 113 16.2812C110.299 16.2812 108.948 17.1357 108.948 18.8447C108.948 20.3096 109.863 21.042 111.694 21.042H113.33C116.178 21.042 117.603 22.1406 117.603 24.3379C117.603 26.7793 115.828 28 112.28 28C110.905 28 109.505 27.7965 108.081 27.3896ZM126.062 15.1826C129.569 15.1826 131.323 17.1235 131.323 21.0054C131.323 21.2821 131.315 21.571 131.299 21.8721H121.57C121.57 25.2249 123.344 26.9014 126.892 26.9014C128.349 26.9014 129.643 26.6979 130.774 26.291V27.3896C129.643 27.7965 128.349 28 126.892 28C122.489 28 120.288 25.8149 120.288 21.4448C120.288 17.27 122.213 15.1826 126.062 15.1826ZM121.57 20.7246H130.09C130.042 17.7461 128.699 16.2568 126.062 16.2568C123.214 16.2568 121.716 17.7461 121.57 20.7246ZM133.887 24.3745C133.887 21.8273 135.579 20.5537 138.965 20.5537C140.161 20.5537 141.439 20.6351 142.798 20.7979V19.2231C142.798 17.2619 141.565 16.2812 139.099 16.2812C137.781 16.2812 136.43 16.4847 135.046 16.8916V15.793C136.43 15.3861 137.781 15.1826 139.099 15.1826C142.419 15.1826 144.08 16.5091 144.08 19.1621V28H143.298L143.005 26.7305C141.402 27.5768 139.848 28 138.342 28C135.372 28 133.887 26.7915 133.887 24.3745ZM138.965 21.6523C136.434 21.6523 135.168 22.5475 135.168 24.3379C135.168 26.0469 136.226 26.9014 138.342 26.9014C139.905 26.9014 141.39 26.4863 142.798 25.6562V21.8965C141.439 21.7337 140.161 21.6523 138.965 21.6523ZM147.949 13.1074H148.853L149.084 15.1826H152.93V16.2812H149.194V24.3745C149.194 26.0591 149.813 26.9014 151.05 26.9014H152.93V28H151.074C148.991 28 147.949 26.8485 147.949 24.5454V13.1074Z" fill="white"/>
</svg>
